<svg width="201" height="80" viewBox="0 0 201 80" fill="none" xmlns="http://www.w3.org/2000/svg">
<path d="M29.776 53.8507C31.9253 55.3893 37.2667 58.9787 38.368 60.1387C39.4667 61.2987 38.4293 63.0693 38.4293 63.0693L40.0773 63.7413C40.4427 62.9467 42.6427 60.016 44.1067 58.184C45.4293 56.5307 46.576 53.6347 46.616 51.5093C46.7413 44.6507 37.6373 41.392 33.4187 37.544C31.344 35.6507 32.992 34.552 32.992 34.552L31.5867 33.6373C26.1547 39.8027 20.432 47.1627 29.776 53.8507ZM34.4587 30.9467C39.7093 35.5867 48.952 40.408 49.6027 43.5253C50.4507 47.5867 48.504 49.8773 48.504 49.8773L49.5547 50.7333C50.1227 49.9227 50.7573 49.1573 51.3413 48.3573C53.72 45.0987 56.0133 41.7893 58.352 38.504C63.696 30.9893 61.696 23.864 53.6453 18.1093C49.5467 15.1813 45.56 12.0827 41.4213 9.20534C39.0987 7.25067 40.688 3.58667 40.688 3.58667L39.7093 2.73334C39.7093 2.73334 30.9467 13.3573 30.1813 17.6347C29.4533 21.728 29.208 26.3067 34.4587 30.9467ZM61.3333 72L59.576 66.6667H20.424L18.6667 72H29.84L31.5253 77.3333H48.5787L50.176 72H61.3333Z" fill="#18181B"/>
<path d="M100.384 56.576C97.056 56.576 94.176 55.856 91.744 54.416C89.344 52.944 87.488 50.912 86.176 48.32C84.864 45.696 84.208 42.672 84.208 39.248C84.208 35.792 84.864 32.768 86.176 30.176C87.488 27.552 89.344 25.504 91.744 24.032C94.176 22.56 97.056 21.824 100.384 21.824C104.32 21.824 107.536 22.784 110.032 24.704C112.528 26.624 114.112 29.312 114.784 32.768H109.12C108.672 30.816 107.712 29.264 106.24 28.112C104.768 26.96 102.8 26.384 100.336 26.384C96.976 26.384 94.32 27.536 92.368 29.84C90.416 32.112 89.44 35.248 89.44 39.248C89.44 43.216 90.416 46.336 92.368 48.608C94.32 50.88 96.976 52.016 100.336 52.016C102.8 52.016 104.768 51.472 106.24 50.384C107.712 49.296 108.672 47.808 109.12 45.92H114.784C114.112 49.248 112.528 51.856 110.032 53.744C107.536 55.632 104.32 56.576 100.384 56.576ZM128.969 56.576C126.089 56.576 123.817 55.68 122.153 53.888C120.521 52.096 119.705 49.424 119.705 45.872V32.192H124.793V45.344C124.793 49.952 126.681 52.256 130.457 52.256C132.345 52.256 133.897 51.584 135.113 50.24C136.329 48.896 136.937 46.976 136.937 44.48V32.192H142.025V56H137.513L137.129 51.824C136.393 53.296 135.305 54.464 133.865 55.328C132.457 56.16 130.825 56.576 128.969 56.576ZM148.497 66.56V32.192H153.057L153.585 35.888C154.353 34.768 155.409 33.776 156.753 32.912C158.097 32.048 159.825 31.616 161.937 31.616C164.241 31.616 166.273 32.16 168.033 33.248C169.793 34.336 171.169 35.824 172.161 37.712C173.185 39.6 173.697 41.744 173.697 44.144C173.697 46.544 173.185 48.688 172.161 50.576C171.169 52.432 169.793 53.904 168.033 54.992C166.273 56.048 164.225 56.576 161.889 56.576C160.033 56.576 158.385 56.208 156.945 55.472C155.537 54.736 154.417 53.696 153.585 52.352V66.56H148.497ZM161.025 52.16C163.201 52.16 164.993 51.424 166.401 49.952C167.809 48.448 168.513 46.496 168.513 44.096C168.513 42.528 168.193 41.136 167.553 39.92C166.913 38.704 166.033 37.76 164.913 37.088C163.793 36.384 162.497 36.032 161.025 36.032C158.849 36.032 157.057 36.784 155.649 38.288C154.273 39.792 153.585 41.728 153.585 44.096C153.585 46.496 154.273 48.448 155.649 49.952C157.057 51.424 158.849 52.16 161.025 52.16ZM188.704 56.576C185.696 56.576 183.216 55.84 181.264 54.368C179.312 52.896 178.192 50.944 177.904 48.512H183.04C183.296 49.6 183.904 50.544 184.864 51.344C185.824 52.112 187.088 52.496 188.656 52.496C190.192 52.496 191.312 52.176 192.016 51.536C192.72 50.896 193.072 50.16 193.072 49.328C193.072 48.112 192.576 47.296 191.584 46.88C190.624 46.432 189.28 46.032 187.552 45.68C186.208 45.392 184.864 45.008 183.52 44.528C182.208 44.048 181.104 43.376 180.208 42.512C179.344 41.616 178.912 40.416 178.912 38.912C178.912 36.832 179.712 35.104 181.312 33.728C182.912 32.32 185.152 31.616 188.032 31.616C190.688 31.616 192.832 32.256 194.464 33.536C196.128 34.816 197.104 36.624 197.392 38.96H192.496C192.336 37.936 191.856 37.136 191.056 36.56C190.288 35.984 189.248 35.696 187.936 35.696C186.656 35.696 185.664 35.968 184.96 36.512C184.256 37.024 183.904 37.696 183.904 38.528C183.904 39.36 184.384 40.016 185.344 40.496C186.336 40.976 187.632 41.408 189.232 41.792C190.832 42.144 192.304 42.56 193.648 43.04C195.024 43.488 196.128 44.16 196.96 45.056C197.792 45.952 198.208 47.264 198.208 48.992C198.24 51.168 197.392 52.976 195.664 54.416C193.968 55.856 191.648 56.576 188.704 56.576Z" fill="#111827"/>
</svg>
