<svg width="148" height="52" viewBox="0 0 148 52" fill="none" xmlns="http://www.w3.org/2000/svg">
<path d="M19.3544 35.0031C20.7515 36.0033 24.2233 38.3363 24.9392 39.0903C25.6533 39.8443 24.9791 40.9953 24.9791 40.9953L26.0503 41.4321C26.2877 40.9155 27.7177 39.0106 28.6693 37.8198C29.5291 36.7451 30.2744 34.8627 30.3004 33.4813C30.3819 29.0231 24.4643 26.905 21.7221 24.4038C20.3736 23.1731 21.4448 22.459 21.4448 22.459L20.5313 21.8645C17.0005 25.8719 13.2808 30.6559 19.3544 35.0031ZM22.3981 20.1155C25.8111 23.1315 31.8188 26.2654 32.2417 28.2917C32.7929 30.9315 31.5276 32.4205 31.5276 32.4205L32.2105 32.9769C32.5797 32.4499 32.9923 31.9525 33.3719 31.4325C34.918 29.3143 36.4087 27.1633 37.9288 25.0278C41.4024 20.1433 40.1024 15.5118 34.8695 11.7713C32.2053 9.86805 29.614 7.85392 26.9239 5.98366C25.4141 4.71312 26.4472 2.33152 26.4472 2.33152L25.8111 1.77686C25.8111 1.77686 20.1153 8.68245 19.6179 11.4627C19.1447 14.1234 18.9852 17.0995 22.3981 20.1155ZM39.8667 46.8002L38.7244 43.3335H13.2756L12.1333 46.8002H19.396L20.4915 50.2669H31.5761L32.6144 46.8002H39.8667Z" fill="white"/>
<path d="M68.554 38.956C65.9193 38.956 63.6393 38.386 61.714 37.246C59.814 36.0807 58.3447 34.472 57.306 32.42C56.2673 30.3427 55.748 27.9487 55.748 25.238C55.748 22.502 56.2673 20.108 57.306 18.056C58.3447 15.9787 59.814 14.3573 61.714 13.192C63.6393 12.0267 65.9193 11.444 68.554 11.444C71.67 11.444 74.216 12.204 76.192 13.724C78.168 15.244 79.422 17.372 79.954 20.108H75.47C75.1153 18.5627 74.3553 17.334 73.19 16.422C72.0247 15.51 70.4667 15.054 68.516 15.054C65.856 15.054 63.7533 15.966 62.208 17.79C60.6627 19.5887 59.89 22.0713 59.89 25.238C59.89 28.3793 60.6627 30.8493 62.208 32.648C63.7533 34.4467 65.856 35.346 68.516 35.346C70.4667 35.346 72.0247 34.9153 73.19 34.054C74.3553 33.1927 75.1153 32.0147 75.47 30.52H79.954C79.422 33.1547 78.168 35.2193 76.192 36.714C74.216 38.2087 71.67 38.956 68.554 38.956ZM91.1836 38.956C88.9036 38.956 87.1049 38.2467 85.7876 36.828C84.4956 35.4093 83.8496 33.294 83.8496 30.482V19.652H87.8776V30.064C87.8776 33.712 89.3723 35.536 92.3616 35.536C93.8563 35.536 95.0849 35.004 96.0476 33.94C97.0103 32.876 97.4916 31.356 97.4916 29.38V19.652H101.52V38.5H97.9476L97.6436 35.194C97.0609 36.3593 96.1996 37.284 95.0596 37.968C93.9449 38.6267 92.6529 38.956 91.1836 38.956ZM106.644 46.86V19.652H110.254L110.672 22.578C111.28 21.6913 112.116 20.906 113.18 20.222C114.244 19.538 115.612 19.196 117.284 19.196C119.108 19.196 120.716 19.6267 122.11 20.488C123.503 21.3493 124.592 22.5273 125.378 24.022C126.188 25.5167 126.594 27.214 126.594 29.114C126.594 31.014 126.188 32.7113 125.378 34.206C124.592 35.6753 123.503 36.8407 122.11 37.702C120.716 38.538 119.095 38.956 117.246 38.956C115.776 38.956 114.472 38.6647 113.332 38.082C112.217 37.4993 111.33 36.676 110.672 35.612V46.86H106.644ZM116.562 35.46C118.284 35.46 119.703 34.8773 120.818 33.712C121.932 32.5213 122.49 30.976 122.49 29.076C122.49 27.8347 122.236 26.7327 121.73 25.77C121.223 24.8073 120.526 24.06 119.64 23.528C118.753 22.9707 117.727 22.692 116.562 22.692C114.839 22.692 113.42 23.2873 112.306 24.478C111.216 25.6687 110.672 27.2013 110.672 29.076C110.672 30.976 111.216 32.5213 112.306 33.712C113.42 34.8773 114.839 35.46 116.562 35.46ZM138.474 38.956C136.093 38.956 134.13 38.3733 132.584 37.208C131.039 36.0427 130.152 34.4973 129.924 32.572H133.99C134.193 33.4333 134.674 34.1807 135.434 34.814C136.194 35.422 137.195 35.726 138.436 35.726C139.652 35.726 140.539 35.4727 141.096 34.966C141.654 34.4593 141.932 33.8767 141.932 33.218C141.932 32.2553 141.54 31.6093 140.754 31.28C139.994 30.9253 138.93 30.6087 137.562 30.33C136.498 30.102 135.434 29.798 134.37 29.418C133.332 29.038 132.458 28.506 131.748 27.822C131.064 27.1127 130.722 26.1627 130.722 24.972C130.722 23.3253 131.356 21.9573 132.622 20.868C133.889 19.7533 135.662 19.196 137.942 19.196C140.045 19.196 141.742 19.7027 143.034 20.716C144.352 21.7293 145.124 23.1607 145.352 25.01H141.476C141.35 24.1993 140.97 23.566 140.336 23.11C139.728 22.654 138.905 22.426 137.866 22.426C136.853 22.426 136.068 22.6413 135.51 23.072C134.953 23.4773 134.674 24.0093 134.674 24.668C134.674 25.3267 135.054 25.846 135.814 26.226C136.6 26.606 137.626 26.948 138.892 27.252C140.159 27.5307 141.324 27.86 142.388 28.24C143.478 28.5947 144.352 29.1267 145.01 29.836C145.669 30.5453 145.998 31.584 145.998 32.952C146.024 34.6747 145.352 36.106 143.984 37.246C142.642 38.386 140.805 38.956 138.474 38.956Z" fill="white"/>
</svg>
